<svg xmlns="http://www.w3.org/2000/svg" viewBox="0 0 400 300"><g id="_552_coins_flatline" data-name="#552_coins_flatline"><path d="M187,86.78c-4.28,5-2.61,18-2.61,18l4.36,4.44A15.93,15.93,0,1,0,209.42,85l-5.06-3.62S191.26,81.76,187,86.78Z" fill="#231f20"/><path d="M199.06,113.54a16.37,16.37,0,0,1-10.66-3.93L184,105.14a.47.47,0,0,1-.14-.29c-.07-.54-1.66-13.28,2.72-18.4s17.21-5.53,17.76-5.55a.44.44,0,0,1,.3.1l5.06,3.62a16.41,16.41,0,0,1-10.65,28.92Zm-14.22-9,4.24,4.32a15.43,15.43,0,0,0,20-23.48l-4.89-3.49c-1.52.06-13,.7-16.86,5.19S184.67,103.05,184.84,104.56Z" fill="#231f20"/><circle cx="196" cy="94.5" r="15.92" fill="#fff"/><path d="M196,110.88a16.37,16.37,0,1,1,1.31,0C196.84,110.86,196.41,110.88,196,110.88ZM196,79a15.46,15.46,0,1,0,10,3.7A15.42,15.42,0,0,0,196,79Z" fill="#231f20"/><path d="M200.52,58.05l4,4.59c2.55,3.18,10.64.94,18.07-5S234,44.27,231.43,41.09l-4-4.59Z" fill="#231f20"/><path d="M208.3,64.59A5.1,5.1,0,0,1,204.13,63l-4-4.57A.52.52,0,0,1,200,58a.51.51,0,0,1,.19-.34l26.91-21.55a.5.5,0,0,1,.69.06l4,4.59c2.78,3.47-1.14,11-8.9,17.26C217.64,62.24,212.15,64.59,208.3,64.59Zm-7.06-6.48,3.66,4.2c2.35,2.93,10.3.6,17.38-5.07S233.37,44.31,231,41.4l-3.67-4.21Z" fill="#231f20"/><ellipse cx="213.98" cy="47.27" rx="17.24" ry="7.39" transform="translate(17.41 144.14) rotate(-38.69)" fill="#fff"/><path d="M204.3,60a5,5,0,0,1-4.13-1.63c-1.36-1.69-1.13-4.43.63-7.73a35.77,35.77,0,0,1,19.3-15.46c3.6-1,6.33-.62,7.69,1.07h0c2.75,3.44-1.17,11-8.91,17.19C213.62,57.61,208.14,60,204.3,60Zm19.36-24.45a12.49,12.49,0,0,0-3.31.51,31.35,31.35,0,0,0-10.7,5.85A31.4,31.4,0,0,0,201.6,51c-1.55,2.91-1.82,5.37-.72,6.73,2.35,2.93,10.33.61,17.43-5.08s11.11-13,8.76-15.9A4.19,4.19,0,0,0,223.66,35.51Z" fill="#231f20"/><path d="M161.85,52.27,166.21,48c2.79-3,10.68-.08,17.61,6.45s10.28,14.22,7.48,17.19L187,75.9Z" fill="#fff"/><path d="M187,76.36a.47.47,0,0,1-.32-.12L161.54,52.6a.49.49,0,0,1-.15-.33.47.47,0,0,1,.14-.33l4.36-4.25c1.47-1.57,4.22-1.73,7.73-.45a32.36,32.36,0,0,1,10.51,6.88c7.22,6.81,10.52,14.64,7.51,17.84l-4.37,4.27A.45.45,0,0,1,187,76.36Zm-24.44-24.1,24.43,23,4-4c2.56-2.72-.85-10.3-7.48-16.53a31.45,31.45,0,0,0-10.19-6.69c-3.1-1.13-5.57-1.05-6.77.23Z" fill="#231f20"/><ellipse cx="174.4" cy="64.09" rx="7.39" ry="17.24" transform="translate(8.18 147.11) rotate(-46.72)" fill="#231f20"/><path d="M183.73,77.57a12.37,12.37,0,0,1-4.21-.86A32.42,32.42,0,0,1,169,69.83a32.47,32.47,0,0,1-7.5-10.1c-1.5-3.44-1.5-6.21,0-7.8s4.26-1.76,7.79-.47a32.3,32.3,0,0,1,10.53,6.89,32.33,32.33,0,0,1,7.5,10.09c1.5,3.44,1.5,6.22,0,7.81h0A4.72,4.72,0,0,1,183.73,77.57Zm-18.65-26a3.79,3.79,0,0,0-2.86,1c-1.19,1.26-1.12,3.71.18,6.72a31.49,31.49,0,0,0,7.28,9.77,31.33,31.33,0,0,0,10.18,6.67c3.08,1.13,5.53,1,6.72-.21h0c1.19-1.26,1.12-3.71-.19-6.72a31.29,31.29,0,0,0-7.27-9.77,31.33,31.33,0,0,0-10.18-6.67A11.56,11.56,0,0,0,165.08,51.6Z" fill="#231f20"/><path d="M164,103.78c-1.77-2.34-3.32-5.69-.4-7.33,2-1.15,5-.58,7.26.36s4.29,2.24,6.84,2.52c7.12.75,12.68-6.72,19.58-5.26,2.59.54,4.4,2.25,6.85,3.07,4.54,1.51,9.7-.35,14.34-1.69s11-1.8,13.62,1.29-.61,6.77-3,9.88A24.91,24.91,0,0,0,223.91,120c-.09,1.37-.1,2.86-1.23,4s-3.44,1.62-5.47,2c-12.56,2-26.69,3.4-37.4-3.13C172.51,118.35,168.51,109.68,164,103.78Z" fill="#3ec422"/><path d="M283.25,221.93c0,34.12-37.28,43-83.25,43s-83.25-8.9-83.25-43S154,121.25,200,121.25,283.25,187.81,283.25,221.93Z" fill="#3ec422"/><path d="M207.58,131.38A280.49,280.49,0,0,1,222,176.79l18.27-7S226.89,150,219.06,140,207.58,131.38,207.58,131.38Z" fill="#fff"/><path d="M222,177.25a.54.54,0,0,1-.21-.05.44.44,0,0,1-.23-.3,283.3,283.3,0,0,0-14.44-45.34.45.45,0,0,1,0-.36.43.43,0,0,1,.26-.25c.41-.15,4.2-1.2,12,8.77s21.14,29.59,21.27,29.78a.47.47,0,0,1,.06.4.46.46,0,0,1-.27.29l-18.27,7A.47.47,0,0,1,222,177.25Zm-13.79-45.47a288.69,288.69,0,0,1,14.12,44.4l17.24-6.64c-2.1-3.07-13.85-20.24-20.91-29.25C212.9,132.87,209.48,131.86,208.25,131.78Z" fill="#231f20"/><path d="M211.24,130s22.82,11,31.17,20.88l-13.63,9.85s-11.77-23.37-21.2-29.36Z" fill="#fff"/><path d="M228.78,161.2h-.11a.45.45,0,0,1-.3-.24c-.12-.23-11.82-23.33-21-29.19a.48.48,0,0,1-.21-.43.47.47,0,0,1,.3-.38l3.66-1.37a.45.45,0,0,1,.36,0c.93.44,23,11.13,31.32,21a.44.44,0,0,1,.1.35.46.46,0,0,1-.18.32l-13.63,9.84A.46.46,0,0,1,228.78,161.2Zm-20.21-29.71c8.63,6.2,18.65,25.21,20.37,28.57l12.8-9.24c-8.05-9.18-28.42-19.29-30.53-20.32Z" fill="#231f20"/><path d="M229,131.89c-5.73,2.63-23.11,1.12-26.78,1.12H181.67c-3,0-16.72,1.27-12.53-3.64.46-.54,1.16-1,1.58-1.51,1-1.37.06-3-.71-4.48-3.38-6.36,6.71-5.11,12.06-5.11h34.42c4.36,0,13.76-1.66,12.71,3.43-.23,1.1-1,2.14-.91,3.24.17,1.58,2.13,2.79,2.5,4.35C231.05,130.43,230.35,131.28,229,131.89Z" fill="#fff"/><path d="M216,133.9c-3.76,0-7.49-.18-10.24-.31-1.57-.07-2.81-.13-3.51-.13H181.67c-.41,0-1,0-1.73.06-5.47.21-10.89.24-11.89-1.83-.36-.74-.11-1.62.74-2.61a6.29,6.29,0,0,1,.8-.75,5,5,0,0,0,.77-.75c.81-1.07.07-2.46-.65-3.8l-.1-.19c-.84-1.57-1-2.85-.36-3.82,1.4-2.26,6.22-2.12,10.47-2,.84,0,1.64,0,2.35,0h34.42c.78,0,1.75,0,2.77-.11,3.64-.21,8.18-.47,9.83,1.44a3,3,0,0,1,.56,2.65,8.46,8.46,0,0,1-.46,1.34,3.9,3.9,0,0,0-.45,1.76,4.46,4.46,0,0,0,1.17,2,5.9,5.9,0,0,1,1.32,2.24c.21.91,0,2.18-2,3.13h0C226.45,133.56,221.19,133.9,216,133.9Zm-34.3-1.35h20.55c.72,0,2,.06,3.55.13,6.48.3,18.53.86,23-1.2,1.64-.75,1.66-1.55,1.53-2.09a5.15,5.15,0,0,0-1.14-1.87,5.12,5.12,0,0,1-1.36-2.53,4.46,4.46,0,0,1,.5-2.21,6.84,6.84,0,0,0,.41-1.17,2,2,0,0,0-.35-1.87c-1.36-1.57-5.83-1.32-9.09-1.13-1,.06-2,.12-2.82.12H182.07c-.72,0-1.52,0-2.37,0-3.61-.1-8.55-.24-9.67,1.57-.42.67-.29,1.65.38,2.91l.1.19c.78,1.44,1.74,3.24.58,4.78a5.89,5.89,0,0,1-.91.89,5.46,5.46,0,0,0-.69.65c-.41.48-.85,1.15-.62,1.62.83,1.71,8,1.43,11,1.31C180.64,132.57,181.25,132.55,181.67,132.55Zm47.33-.66h0Z" fill="#231f20"/><path d="M195.43,226.93v-5c-1.82-.5-3.59-.87-5.29-1.46a15.41,15.41,0,0,1-8.14-6.1,15.16,15.16,0,0,1-2.35-8.47h9.76c.45,3.63,2.22,6.23,6,7.23V199.88c-1.95-.57-3.91-1.1-5.84-1.72a13.45,13.45,0,0,1-5.68-3.23,11.19,11.19,0,0,1-3.15-6.15,15.67,15.67,0,0,1,.61-8.5,14.17,14.17,0,0,1,8.57-8.5,43.46,43.46,0,0,1,4.93-1.27c.18,0,.37-.08.6-.12v-6.62h9.13v.64c0,1.89,0,3.79,0,5.68,0,.47.14.61.59.71a19.22,19.22,0,0,1,8.51,4,13.72,13.72,0,0,1,4.84,8.48c.16.91.24,1.83.35,2.79h-9.93a6.94,6.94,0,0,0-4.3-6.3v12.37l1.07.25a35.54,35.54,0,0,1,7.79,2.49,11.23,11.23,0,0,1,6.74,9.41A14.76,14.76,0,0,1,217.64,215a15,15,0,0,1-7.37,5.45c-1.83.64-3.74,1.06-5.71,1.6v4.85Zm9.16-25.15v11.51a8.28,8.28,0,0,0,4-1.78c2.12-1.74,2.87-6.07-.23-8A35.33,35.33,0,0,0,204.59,201.78ZM195.39,190V178.88a33.2,33.2,0,0,0-3.48,1.77c-2.54,1.69-2.94,6.38.3,8C193.21,189.18,194.28,189.54,195.39,190Z" fill="#231f20"/><path d="M170.72,128.31a.45.45,0,0,1-.44-.34.46.46,0,0,1,.33-.55c.23-.06,5.63-1.39,15.68-1.17a.46.46,0,1,1,0,.92c-9.91-.22-15.38,1.12-15.43,1.13Z" fill="#231f20"/><path d="M227.64,124.23h-.07c-.14,0-14.81-2.19-23.2-1.15a.47.47,0,0,1-.51-.4.46.46,0,0,1,.4-.51c8.51-1,23.3,1.14,23.45,1.16a.46.46,0,0,1-.07.91Z" fill="#231f20"/><path d="M218.29,150.73a.45.45,0,0,1-.44-.33c-1.41-5-6-14.24-6.09-14.33a.46.46,0,0,1,.2-.61.45.45,0,0,1,.61.2c.2.38,4.72,9.39,6.16,14.49a.47.47,0,0,1-.32.56Z" fill="#231f20"/><path d="M232.43,154a.46.46,0,0,1-.4-.23c0-.08-4.37-7.63-8.15-11.3a.45.45,0,0,1,0-.65.46.46,0,0,1,.64,0c3.88,3.77,8.14,11.19,8.32,11.51a.46.46,0,0,1-.17.62A.49.49,0,0,1,232.43,154Z" fill="#231f20"/></g></svg>