<svg xmlns="http://www.w3.org/2000/svg" viewBox="0 0 400 300"><g id="_171_revenue_outline" data-name="#171_revenue_outline"><path d="M94.13,217.72a1,1,0,0,1-1-1V90a1,1,0,1,1,2,0v126.7A1,1,0,0,1,94.13,217.72Z" fill="#dfeaef"/><path d="M147.07,217.72a1,1,0,0,1-1-1V90a1,1,0,1,1,2,0v126.7A1,1,0,0,1,147.07,217.72Z" fill="#dfeaef"/><path d="M200,217.72a1,1,0,0,1-1-1V90a1,1,0,1,1,2,0v126.7A1,1,0,0,1,200,217.72Z" fill="#dfeaef"/><path d="M252.93,217.72a1,1,0,0,1-1-1V90a1,1,0,1,1,2,0v126.7A1,1,0,0,1,252.93,217.72Z" fill="#dfeaef"/><path d="M305.87,217.72a1,1,0,0,1-1-1V90a1,1,0,1,1,2,0v126.7A1,1,0,0,1,305.87,217.72Z" fill="#dfeaef"/><path d="M317.67,217.72H85.1a1,1,0,0,1,0-2H317.67a1,1,0,0,1,0,2Z" fill="#093f68"/><path d="M305.87,178.58H94.13a1,1,0,0,1,0-2H305.87a1,1,0,0,1,0,2Z" fill="#dfeaef"/><path d="M305.87,130.15H94.13a1,1,0,0,1,0-2H305.87a1,1,0,0,1,0,2Z" fill="#dfeaef"/><path d="M305.87,91H94.13a1,1,0,0,1,0-2H305.87a1,1,0,0,1,0,2Z" fill="#dfeaef"/><path d="M232,211.54v13.65c0,6.07,10.15,11,22.67,11s22.67-4.92,22.67-11V211.54Z" fill="#ffbc0e"/><path d="M254.67,237.18c-13.27,0-23.67-5.27-23.67-12V211.54a1,1,0,0,1,1-1h45.34a1,1,0,0,1,1,1v13.65C278.34,231.91,267.94,237.18,254.67,237.18ZM233,212.54v12.65c0,5.41,9.93,10,21.67,10s21.67-4.58,21.67-10V212.54Z" fill="#093f68"/><ellipse cx="254.67" cy="211.54" rx="22.67" ry="10.98" fill="#ffbc0e"/><path d="M254.67,223.52c-13.27,0-23.67-5.26-23.67-12s10.4-12,23.67-12,23.67,5.26,23.67,12S267.94,223.52,254.67,223.52Zm0-22c-11.74,0-21.67,4.57-21.67,10s9.93,10,21.67,10,21.67-4.57,21.67-10S266.41,201.56,254.67,201.56Z" fill="#093f68"/><path d="M232,198v13.66c0,6.06,10.15,11,22.67,11s22.67-4.92,22.67-11V198Z" fill="#ffbc0e"/><path d="M254.67,223.66c-13.27,0-23.67-5.26-23.67-12V198a1,1,0,0,1,1-1h45.34a1,1,0,0,1,1,1v13.66C278.34,218.4,267.94,223.66,254.67,223.66ZM233,199v12.66c0,5.41,9.93,10,21.67,10s21.67-4.57,21.67-10V199Z" fill="#093f68"/><ellipse cx="254.67" cy="198.02" rx="22.67" ry="10.98" fill="#ffbc0e"/><path d="M254.67,210C241.4,210,231,204.74,231,198s10.4-12,23.67-12,23.67,5.27,23.67,12S267.94,210,254.67,210Zm0-22c-11.74,0-21.67,4.57-21.67,10s9.93,10,21.67,10,21.67-4.57,21.67-10S266.41,188,254.67,188Z" fill="#093f68"/><path d="M232,184.51v13.66c0,6.06,10.15,11,22.67,11s22.67-4.92,22.67-11V184.51Z" fill="#ffbc0e"/><path d="M254.67,210.15c-13.27,0-23.67-5.27-23.67-12V184.51a1,1,0,0,1,1-1h45.34a1,1,0,0,1,1,1v13.66C278.34,204.88,267.94,210.15,254.67,210.15ZM233,185.51v12.66c0,5.41,9.93,10,21.67,10s21.67-4.57,21.67-10V185.51Z" fill="#093f68"/><ellipse cx="254.67" cy="184.51" rx="22.67" ry="10.98" fill="#ffbc0e"/><path d="M254.67,196.49c-13.27,0-23.67-5.26-23.67-12s10.4-12,23.67-12,23.67,5.26,23.67,12S267.94,196.49,254.67,196.49Zm0-22c-11.74,0-21.67,4.57-21.67,10s9.93,10,21.67,10,21.67-4.57,21.67-10S266.41,174.53,254.67,174.53Z" fill="#093f68"/><path d="M232,171v13.66c0,6.06,10.15,11,22.67,11s22.67-4.92,22.67-11V171Z" fill="#ffbc0e"/><path d="M254.67,196.63c-13.27,0-23.67-5.26-23.67-12V171a1,1,0,0,1,1-1h45.34a1,1,0,0,1,1,1v13.66C278.34,191.37,267.94,196.63,254.67,196.63ZM233,172v12.66c0,5.41,9.93,10,21.67,10s21.67-4.57,21.67-10V172Z" fill="#093f68"/><ellipse cx="254.67" cy="170.99" rx="22.67" ry="10.98" fill="#ffbc0e"/><path d="M254.67,183C241.4,183,231,177.71,231,171s10.4-12,23.67-12,23.67,5.27,23.67,12S267.94,183,254.67,183Zm0-22c-11.74,0-21.67,4.57-21.67,10s9.93,10,21.67,10,21.67-4.58,21.67-10S266.41,161,254.67,161Z" fill="#093f68"/><path d="M232,157.48v13.66c0,6.06,10.15,11,22.67,11s22.67-4.92,22.67-11V157.48Z" fill="#ffbc0e"/><path d="M254.67,183.12c-13.27,0-23.67-5.27-23.67-12V157.48a1,1,0,0,1,1-1h45.34a1,1,0,0,1,1,1v13.66C278.34,177.85,267.94,183.12,254.67,183.12ZM233,158.48v12.66c0,5.41,9.93,10,21.67,10s21.67-4.57,21.67-10V158.48Z" fill="#093f68"/><ellipse cx="254.67" cy="157.48" rx="22.67" ry="10.98" fill="#ffbc0e"/><path d="M254.67,169.46c-13.27,0-23.67-5.26-23.67-12s10.4-12,23.67-12,23.67,5.26,23.67,12S267.94,169.46,254.67,169.46Zm0-22c-11.74,0-21.67,4.57-21.67,10s9.93,10,21.67,10,21.67-4.57,21.67-10S266.41,147.5,254.67,147.5Z" fill="#093f68"/><path d="M176.58,211.54v13.65c0,6.07,10.14,11,22.66,11s22.67-4.92,22.67-11V211.54Z" fill="#ffbc0e"/><path d="M199.24,237.18c-13.27,0-23.66-5.27-23.66-12V211.54a1,1,0,0,1,1-1h45.33a1,1,0,0,1,1,1v13.65C222.91,231.91,212.51,237.18,199.24,237.18Zm-21.66-24.64v12.65c0,5.41,9.92,10,21.66,10s21.67-4.58,21.67-10V212.54Z" fill="#093f68"/><ellipse cx="199.24" cy="211.54" rx="22.67" ry="10.98" fill="#ffbc0e"/><path d="M199.24,223.52c-13.27,0-23.66-5.26-23.66-12s10.39-12,23.66-12,23.67,5.26,23.67,12S212.51,223.52,199.24,223.52Zm0-22c-11.74,0-21.66,4.57-21.66,10s9.92,10,21.66,10,21.67-4.57,21.67-10S211,201.56,199.24,201.56Z" fill="#093f68"/><path d="M176.58,198v13.66c0,6.06,10.14,11,22.66,11s22.67-4.92,22.67-11V198Z" fill="#ffbc0e"/><path d="M199.24,223.66c-13.27,0-23.66-5.26-23.66-12V198a1,1,0,0,1,1-1h45.33a1,1,0,0,1,1,1v13.66C222.91,218.4,212.51,223.66,199.24,223.66ZM177.58,199v12.66c0,5.41,9.92,10,21.66,10s21.67-4.57,21.67-10V199Z" fill="#093f68"/><ellipse cx="199.24" cy="198.02" rx="22.67" ry="10.98" fill="#ffbc0e"/><path d="M199.24,210c-13.27,0-23.66-5.26-23.66-12s10.39-12,23.66-12,23.67,5.27,23.67,12S212.51,210,199.24,210Zm0-22c-11.74,0-21.66,4.57-21.66,10s9.92,10,21.66,10,21.67-4.57,21.67-10S211,188,199.24,188Z" fill="#093f68"/><path d="M176.58,184.51v13.66c0,6.06,10.14,11,22.66,11s22.67-4.92,22.67-11V184.51Z" fill="#ffbc0e"/><path d="M199.24,210.15c-13.27,0-23.66-5.27-23.66-12V184.51a1,1,0,0,1,1-1h45.33a1,1,0,0,1,1,1v13.66C222.91,204.88,212.51,210.15,199.24,210.15Zm-21.66-24.64v12.66c0,5.41,9.92,10,21.66,10s21.67-4.57,21.67-10V185.51Z" fill="#093f68"/><ellipse cx="199.24" cy="184.51" rx="22.67" ry="10.98" fill="#ffbc0e"/><path d="M199.24,196.49c-13.27,0-23.66-5.26-23.66-12s10.39-12,23.66-12,23.67,5.26,23.67,12S212.51,196.49,199.24,196.49Zm0-22c-11.74,0-21.66,4.57-21.66,10s9.92,10,21.66,10,21.67-4.57,21.67-10S211,174.53,199.24,174.53Z" fill="#093f68"/><path d="M121.15,211.54v13.65c0,6.07,10.15,11,22.66,11s22.67-4.92,22.67-11V211.54Z" fill="#ffbc0e"/><path d="M143.81,237.18c-13.27,0-23.66-5.27-23.66-12V211.54a1,1,0,0,1,1-1h45.33a1,1,0,0,1,1,1v13.65C167.48,231.91,157.08,237.18,143.81,237.18Zm-21.66-24.64v12.65c0,5.41,9.92,10,21.66,10s21.67-4.58,21.67-10V212.54Z" fill="#093f68"/><ellipse cx="143.81" cy="211.54" rx="22.67" ry="10.98" fill="#ffbc0e"/><path d="M143.81,223.52c-13.27,0-23.66-5.26-23.66-12s10.39-12,23.66-12,23.67,5.26,23.67,12S157.08,223.52,143.81,223.52Zm0-22c-11.74,0-21.66,4.57-21.66,10s9.92,10,21.66,10,21.67-4.57,21.67-10S155.56,201.56,143.81,201.56Z" fill="#093f68"/><path d="M287.69,68.64s0,0,0,0a5.29,5.29,0,0,0-.09-.8l0-.15a5.32,5.32,0,0,0-.25-.77,1.42,1.42,0,0,0-.08-.18,5.49,5.49,0,0,0-.39-.71l-.09-.11a4.14,4.14,0,0,0-.55-.64l0,0h0l0,0a5,5,0,0,0-.67-.52l-.14-.09a5.49,5.49,0,0,0-.73-.36l-.18-.07a4.39,4.39,0,0,0-.79-.21l-.1,0a4,4,0,0,0-.78-.05h-.13c-.21,0-.43,0-.64.06l-32.45,5.34a4.93,4.93,0,1,0,1.6,9.72L269,76l-70.62,73.9-33.1-21.23a4.92,4.92,0,0,0-5.91.46L114,169.25a4.92,4.92,0,0,0,6.52,7.38L163.13,139l33.38,21.41a4.92,4.92,0,0,0,6.22-.74l73.71-77.14-1.7,16.93a4.92,4.92,0,0,0,4.4,5.39l.5,0a4.92,4.92,0,0,0,4.89-4.44l3.13-31.17A5.68,5.68,0,0,0,287.69,68.64Z" fill="#3ec422"/><path d="M117.24,178.86a5.92,5.92,0,0,1-3.93-10.36l45.42-40.13a5.94,5.94,0,0,1,7.12-.55l32.41,20.79,68-71.15-15,2.47A5.93,5.93,0,0,1,244.47,75a5.93,5.93,0,0,1,4.88-6.8L281.8,62.9a4.11,4.11,0,0,1,.78-.07h.14a4.87,4.87,0,0,1,1,.07h.11a6.59,6.59,0,0,1,1,.26l.21.08a6.52,6.52,0,0,1,.88.43l.13.09a6.67,6.67,0,0,1,.85.65h0a.57.57,0,0,1,.11.11,6.28,6.28,0,0,1,.62.73l.1.14a5,5,0,0,1,.48.86l.1.21a7,7,0,0,1,.29.92l0,.16a6.07,6.07,0,0,1,.12,1s0,.07,0,.07c0,.24,0,.48,0,.71l-3.13,31.17a5.92,5.92,0,0,1-11.79-1.18l1.41-14-71.7,75a5.94,5.94,0,0,1-7.48.9l-32.75-21-42.06,37.17A5.92,5.92,0,0,1,117.24,178.86Zm45.42-50a3.9,3.9,0,0,0-2.6,1L114.64,170a3.92,3.92,0,0,0,2.6,6.86,3.87,3.87,0,0,0,2.59-1l42.64-37.67a1,1,0,0,1,1.2-.09l33.38,21.41a4,4,0,0,0,5-.59l73.7-77.14a1,1,0,0,1,1.14-.22,1,1,0,0,1,.58,1l-1.7,16.93a4,4,0,0,0,.87,2.88,3.92,3.92,0,0,0,6.94-2.1l3.13-31.17c0-.14,0-.29,0-.44a.25.25,0,0,1,0-.08,3.18,3.18,0,0,0-.07-.62l.95-.34-1,.21a3.31,3.31,0,0,0-.19-.61l-.06-.14a5.81,5.81,0,0,0-.32-.57l-.07-.09a3.1,3.1,0,0,0-.44-.51l-.05,0h0a3.63,3.63,0,0,0-.53-.41l.41-.93-.52.85a5.23,5.23,0,0,0-.58-.29l-.12,0a4.69,4.69,0,0,0-.65-.18,3.7,3.7,0,0,0-.7,0h-.11a4.4,4.4,0,0,0-.51.05l-32.45,5.34A3.92,3.92,0,1,0,251,78l17.92-3a1,1,0,0,1,.88,1.68l-70.61,73.91a1,1,0,0,1-1.27.15l-33.1-21.24A3.92,3.92,0,0,0,162.66,128.89Z" fill="#093f68"/></g></svg>