<svg xmlns="http://www.w3.org/2000/svg" viewBox="0 0 400 300"><g id="_172_revenue_outline" data-name="#172_revenue_outline"><path d="M223.09,85.74l12.47-20.26H191.68l12.47,20.26c-21.62,7.12-37.9,37.18-37.9,58.87,0,24.75,21.21,29.22,47.37,29.22S261,169.36,261,144.61C261,122.92,244.71,92.86,223.09,85.74Z" fill="#3ec422"/><path d="M213.62,174.83c-15.83,0-26.29-1.68-33.94-5.43-9.71-4.77-14.43-12.88-14.43-24.79,0-10.89,4.11-24.13,11-35.42,7.23-11.88,16.57-20.34,26.4-24L190.82,66a1,1,0,0,1,.86-1.52h43.88a1,1,0,0,1,.87.51,1,1,0,0,1,0,1L224.59,85.2c9.83,3.65,19.17,12.11,26.41,24,6.87,11.29,11,24.53,11,35.42C262,171.24,237.53,174.83,213.62,174.83ZM193.47,66.48,205,85.21a1,1,0,0,1-.54,1.48c-9.82,3.23-19.24,11.59-26.52,23.54-6.69,11-10.69,23.84-10.69,34.38,0,24.8,22.28,28.22,46.37,28.22S260,169.41,260,144.61c0-10.54-4-23.39-10.69-34.38-7.28-12-16.7-20.31-26.52-23.54a1,1,0,0,1-.54-1.48l11.54-18.73Z" fill="#093f68"/><rect x="200.27" y="82.8" width="26.68" height="3.84" rx="1.92" fill="#093f68"/><path d="M225,87.64H202.19a2.92,2.92,0,1,1,0-5.84H225a2.92,2.92,0,1,1,0,5.84ZM202.19,83.8a.92.92,0,1,0,0,1.84H225a.92.92,0,1,0,0-1.84Z" fill="#093f68"/><rect x="203.96" y="89.68" width="18.39" height="3.84" rx="1.62" transform="translate(368.84 -80.4) rotate(108.89)" fill="#093f68"/><path d="M211,101.49a2.5,2.5,0,0,1-.85-.15l-.58-.19a2.62,2.62,0,0,1-1.5-1.33,2.55,2.55,0,0,1-.12-2l4.9-14.34a2.61,2.61,0,0,1,3.33-1.63l.57.2a2.61,2.61,0,0,1,1.63,3.32l-4.91,14.34a2.57,2.57,0,0,1-1.32,1.5A2.62,2.62,0,0,1,211,101.49Zm4.33-17.77a.63.63,0,0,0-.27.06.59.59,0,0,0-.31.35l-4.91,14.34h0a.63.63,0,0,0,0,.47.59.59,0,0,0,.35.31l.58.2a.56.56,0,0,0,.47,0,.59.59,0,0,0,.31-.35l4.91-14.34a.61.61,0,0,0-.38-.78l-.58-.2A.69.69,0,0,0,215.32,83.72Zm-6.44,14.43h0Z" fill="#093f68"/><rect x="211.8" y="90.15" width="18.39" height="3.84" rx="1.62" transform="translate(236.54 -146.83) rotate(71.11)" fill="#093f68"/><path d="M223.16,102a2.6,2.6,0,0,1-2.47-1.77l-4.91-14.34a2.62,2.62,0,0,1,1.62-3.32l.58-.2A2.62,2.62,0,0,1,221.3,84l4.91,14.34a2.61,2.61,0,0,1-1.63,3.32l-.57.2A2.53,2.53,0,0,1,223.16,102Zm-4.33-17.77a.45.45,0,0,0-.2,0l-.58.19a.62.62,0,0,0-.38.79l4.91,14.34a.61.61,0,0,0,.78.38l.58-.2a.61.61,0,0,0,.38-.78h0L219.41,84.6A.62.62,0,0,0,218.83,84.18Z" fill="#093f68"/><path d="M210.59,150.08v-3.32c-1.21-.32-2.39-.58-3.51-1a10.24,10.24,0,0,1-5.39-4.05,10,10,0,0,1-1.56-5.61h6.47a5.12,5.12,0,0,0,4,4.79v-8.78c-1.3-.38-2.59-.73-3.87-1.14a8.9,8.9,0,0,1-3.76-2.14,7.48,7.48,0,0,1-2.1-4.08,10.48,10.48,0,0,1,.41-5.63,9.34,9.34,0,0,1,5.68-5.63,28,28,0,0,1,3.27-.85l.4-.08v-4.39h6v.43c0,1.25,0,2.51,0,3.76,0,.31.09.41.39.47a12.65,12.65,0,0,1,5.64,2.64,9,9,0,0,1,3.21,5.62c.11.6.16,1.21.24,1.84h-6.59a4.59,4.59,0,0,0-2.85-4.17V127l.71.17a23.31,23.31,0,0,1,5.16,1.64,7.48,7.48,0,0,1,4.47,6.24,9.81,9.81,0,0,1-1.7,7.14,9.94,9.94,0,0,1-4.88,3.62c-1.22.42-2.48.7-3.79,1.06v3.21Zm6.07-16.67V141a5.62,5.62,0,0,0,2.68-1.18c1.4-1.16,1.9-4-.16-5.29A22.56,22.56,0,0,0,216.66,133.41Zm-6.1-7.81v-7.37a21.63,21.63,0,0,0-2.31,1.17c-1.68,1.13-1.95,4.23.2,5.32C209.11,125.06,209.82,125.29,210.56,125.6Z" fill="#fff"/><path d="M216.64,151.08h-6a1,1,0,0,1-1-1v-2.55l-.37-.09c-.82-.2-1.65-.42-2.47-.7a11.21,11.21,0,0,1-5.9-4.44,11,11,0,0,1-1.72-6.16,1,1,0,0,1,.29-.71,1,1,0,0,1,.71-.29h6.47a1,1,0,0,1,1,.88,4.27,4.27,0,0,0,2,3.43V132.9l-.47-.13c-.91-.26-1.81-.52-2.7-.8a10,10,0,0,1-4.17-2.39,8.47,8.47,0,0,1-2.37-4.61,11.24,11.24,0,0,1,.46-6.17,10.35,10.35,0,0,1,6.26-6.21,16.32,16.32,0,0,1,2.39-.65l.63-.14v-3.59a1,1,0,0,1,1-1h6a1,1,0,0,1,1,1v1.45c0,.77,0,1.55,0,2.32a13.44,13.44,0,0,1,5.67,2.76,10.13,10.13,0,0,1,3.56,6.22c.08.43.12.86.17,1.31l.07.58a1,1,0,0,1-.25.79,1,1,0,0,1-.75.33h-6.58a1,1,0,0,1-1-.94,3.72,3.72,0,0,0-.86-2.29v5.47a23.77,23.77,0,0,1,5.3,1.7,8.44,8.44,0,0,1,5,7,10.79,10.79,0,0,1-7.25,11.82c-.87.3-1.77.54-2.64.76l-.47.12v2.45A1,1,0,0,1,216.64,151.08Zm-5-2h4v-2.21a1,1,0,0,1,.73-1l1.24-.32c.87-.23,1.69-.44,2.49-.72a8.86,8.86,0,0,0,4.4-3.26,8.74,8.74,0,0,0,1.52-6.43,6.47,6.47,0,0,0-3.9-5.45,22,22,0,0,0-5-1.58c-.18,0-.36-.08-.52-.12l-.21-.05a1,1,0,0,1-.77-1v-8.2a1,1,0,0,1,.47-.84,1,1,0,0,1,1-.06,5.51,5.51,0,0,1,3.31,4.07H225c0-.22-.06-.45-.1-.67a8,8,0,0,0-2.87-5,11.61,11.61,0,0,0-5.2-2.43,1.37,1.37,0,0,1-1.19-1.46c0-.91,0-1.82,0-2.73v-.45h-4v3.39a1,1,0,0,1-.81,1l-.15,0-.19,0-1.05.24a16,16,0,0,0-2.12.57,8.4,8.4,0,0,0-5.09,5.05,9.42,9.42,0,0,0-.36,5.11,6.35,6.35,0,0,0,1.81,3.54,8,8,0,0,0,3.36,1.9c.88.28,1.76.53,2.65.78l1.2.35a1,1,0,0,1,.72,1v8.78a1,1,0,0,1-1.26,1,5.92,5.92,0,0,1-4.54-4.76h-4.59a8.56,8.56,0,0,0,1.35,4.06,9.12,9.12,0,0,0,4.88,3.65c.74.25,1.5.45,2.31.65l1.14.3a1,1,0,0,1,.74,1Zm5.07-7a1,1,0,0,1-1-1v-7.63a1,1,0,0,1,.46-.84,1,1,0,0,1,.95-.07l.81.35a12.11,12.11,0,0,1,1.82.87,3.82,3.82,0,0,1,1.85,3.08,4.65,4.65,0,0,1-1.58,3.83,6.47,6.47,0,0,1-3.15,1.4Zm1-7.12v4.8a4,4,0,0,0,1-.64,2.67,2.67,0,0,0,.86-2.14,1.82,1.82,0,0,0-.9-1.51A7.79,7.79,0,0,0,217.66,134.92Zm-7.1-8.32a1,1,0,0,1-.38-.08l-.68-.27c-.49-.19-1-.39-1.5-.64a3.79,3.79,0,0,1-2.08-3.24,4.29,4.29,0,0,1,1.78-3.8,13.25,13.25,0,0,1,1.66-.88q.38-.16.75-.36a1,1,0,0,1,1.45.9v7.37a1,1,0,0,1-.44.83A1,1,0,0,1,210.56,126.6Zm-1-6.79a5.43,5.43,0,0,0-.75.43,2.27,2.27,0,0,0-.89,2,1.84,1.84,0,0,0,1,1.58c.21.11.43.2.66.3Z" fill="#093f68"/><path d="M132.89,173s18.18-22.44,29.39-26.6c3.87-1.44,54,7.75,57.13,12.7s1.13,10.78-9.44,10.53a100.56,100.56,0,0,1-17.77-1.86s21,6.59,27,6.06,39.4-9.27,41.42-6.69,5.4,10-4.6,13.53-30.06,12.45-36,12.76-56.89,10.75-56.89,10.75Z" fill="#ffc9b0"/><path d="M163.08,205.18a1,1,0,0,1-.72-.31L132.18,173.7a1,1,0,0,1-.06-1.33c.75-.92,18.48-22.7,29.82-26.91,2.63-1,19.42,1.88,29.38,3.91s26.86,5.91,28.94,9.2c1.72,2.72,2,5.57.71,7.82-1.15,2-4,4.42-11,4.24-1.67,0-3.26-.11-4.75-.2,5.49,1.41,11.26,2.64,13.9,2.4,2-.17,7-1.27,12.95-2.55,20.38-4.4,27.88-5.63,29.34-3.76s3.08,5.51,2.14,8.76c-.82,2.81-3.24,4.94-7.19,6.33-3.17,1.11-7.36,2.78-11.79,4.54-10,4-20.28,8.06-24.52,8.28-5.83.3-56.23,10.62-56.74,10.73ZM134.23,173l29.19,30.14c5.76-1.18,50.78-10.36,56.5-10.66,3.91-.2,14.52-4.42,23.88-8.14,4.45-1.77,8.66-3.44,11.86-4.57s5.31-2.85,5.94-5c.72-2.48-.48-5.25-1.74-6.9-2.07-1.05-18.53,2.51-27.4,4.43-6,1.29-11.11,2.4-13.19,2.59-6.14.54-26.51-5.84-27.37-6.11a1,1,0,0,1,.52-1.93A99.4,99.4,0,0,0,210,168.63c4.7.11,8-1,9.24-3.22.89-1.59.66-3.69-.66-5.77-2.66-4.2-52-13.75-55.94-12.3C152.89,151,137.37,169.18,134.23,173Z" fill="#093f68"/><polygon points="127.58 170.82 137.14 162.52 170.92 204.18 160.76 212.04 127.58 170.82" fill="#3ec422"/><path d="M160.76,213a1,1,0,0,1-.78-.38L126.8,171.45a1,1,0,0,1,.12-1.38l9.56-8.31a1,1,0,0,1,.74-.24,1,1,0,0,1,.69.37l33.79,41.66a1,1,0,0,1,.22.74,1,1,0,0,1-.38.68l-10.17,7.86A1,1,0,0,1,160.76,213ZM129,171l32,39.7L169.5,204,137,164Z" fill="#093f68"/><polygon points="166.25 211.23 130.44 164.85 101.34 187.87 138.33 234.52 166.25 211.23" fill="#fff"/><path d="M138.33,235.52h-.1a1,1,0,0,1-.68-.37l-37-46.65a1,1,0,0,1,.16-1.4l29.1-23a1,1,0,0,1,.75-.21,1,1,0,0,1,.67.38L167,210.62a1,1,0,0,1-.15,1.38L139,235.29A1,1,0,0,1,138.33,235.52ZM102.75,188l35.73,45.07,26.39-22-34.6-44.81Z" fill="#093f68"/><circle cx="147.53" cy="208.82" r="4.65" fill="#093f68"/><path d="M147.53,214.47a5.65,5.65,0,1,1,5.65-5.65A5.66,5.66,0,0,1,147.53,214.47Zm0-9.29a3.65,3.65,0,1,0,3.65,3.64A3.65,3.65,0,0,0,147.53,205.18Z" fill="#093f68"/><polygon points="147.53 76.61 134.11 93.88 140.77 93.88 140.77 137.22 154.29 137.22 154.29 93.88 160.95 93.88 147.53 76.61" fill="#70cc40"/><path d="M154.29,138.23H140.77a1,1,0,0,1-1-1V94.88h-5.66a1,1,0,0,1-.9-.56,1,1,0,0,1,.11-1L146.74,76a1,1,0,0,1,1.58,0l13.42,17.27a1,1,0,0,1,.11,1,1,1,0,0,1-.9.56h-5.66v42.35A1,1,0,0,1,154.29,138.23Zm-12.52-2h11.52V93.88a1,1,0,0,1,1-1h4.62L147.53,78.24,136.15,92.88h4.62a1,1,0,0,1,1,1Z" fill="#093f68"/><polygon points="251.75 196.06 240.68 210.3 246.17 210.3 246.17 230.89 257.32 230.89 257.32 210.3 262.82 210.3 251.75 196.06" fill="#70cc40"/><path d="M257.32,231.89H246.17a1,1,0,0,1-1-1V211.3h-4.49a1,1,0,0,1-.9-.56,1,1,0,0,1,.11-1.05L251,195.44a1,1,0,0,1,1.58,0l11.07,14.25a1,1,0,0,1,.1,1.05,1,1,0,0,1-.89.56h-4.5v19.59A1,1,0,0,1,257.32,231.89Zm-10.15-2h9.15V210.3a1,1,0,0,1,1-1h3.45l-9-11.62-9,11.62h3.45a1,1,0,0,1,1,1Z" fill="#093f68"/><polygon points="208.74 201.31 201.01 211.26 204.85 211.26 204.85 225.63 212.63 225.63 212.63 211.26 216.47 211.26 208.74 201.31" fill="#70cc40"/><path d="M212.63,226.63h-7.78a1,1,0,0,1-1-1V212.26H201a1,1,0,0,1-.79-1.62L208,200.7a1,1,0,0,1,1.58,0l7.73,9.94a1,1,0,0,1,.11,1.06,1,1,0,0,1-.9.56h-2.84v13.37A1,1,0,0,1,212.63,226.63Zm-6.78-2h5.78V211.26a1,1,0,0,1,1-1h1.79l-5.68-7.32-5.69,7.32h1.8a1,1,0,0,1,1,1Z" fill="#093f68"/><polygon points="119.13 119.44 110.68 130.31 114.88 130.31 114.88 157.6 123.38 157.6 123.38 130.31 127.58 130.31 119.13 119.44" fill="#70cc40"/><path d="M123.38,158.6h-8.5a1,1,0,0,1-1-1V131.31h-3.2a1,1,0,0,1-.9-.56,1,1,0,0,1,.11-1.05l8.45-10.87a1,1,0,0,1,1.58,0l8.44,10.87a1,1,0,0,1,.11,1.05,1,1,0,0,1-.89.56h-3.2V157.6A1,1,0,0,1,123.38,158.6Zm-7.5-2h6.5V130.31a1,1,0,0,1,1-1h2.15l-6.4-8.24-6.4,8.24h2.15a1,1,0,0,1,1,1Z" fill="#093f68"/><polygon points="285.24 78.91 271.82 96.17 278.48 96.17 278.48 195.54 292 195.54 292 96.17 298.66 96.17 285.24 78.91" fill="#70cc40"/><path d="M292,196.54H278.48a1,1,0,0,1-1-1V97.17h-5.66a1,1,0,0,1-.9-.56,1,1,0,0,1,.11-1l13.42-17.27a1,1,0,0,1,1.58,0l13.42,17.27a1,1,0,0,1,.11,1,1,1,0,0,1-.9.56H293v98.37A1,1,0,0,1,292,196.54Zm-12.51-2H291V96.17a1,1,0,0,1,1-1h4.62L285.24,80.54,273.86,95.17h4.62a1,1,0,0,1,1,1Z" fill="#093f68"/></g></svg>